/* XPM */
static char *_af8a3b21e264efcd4416c9d0a753ceelRtAM1TPaWbZOeGN[] = {
/* columns rows colors chars-per-pixel */
"10 27 16 1 ",
"  c None",
". c #3C3B37",
"X c #3E3D39",
"o c #41403C",
"O c #43423E",
"+ c #464540",
"@ c #484743",
"# c #4B4A45",
"$ c #4D4C47",
"% c #504E4A",
"& c #52514C",
"* c #54534F",
"= c #575651",
"- c #585752",
"; c #5B5A54",
": c #696051",
/* pixels */
"     :::::",
"   ::;;;;;",
"  :==-----",
" :********",
" :&&&&&&&&",
":%%%%%%%%%",
":$$$$$$$$$",
":#########",
":@@@@@@@@@",
":++O+++O++",
":OOOOOOOOO",
":OoooOooOo",
":XXXXXXXXX",
":.........",
":.........",
":.........",
":.........",
":.........",
":.........",
":.........",
":.........",
":.........",
":.........",
":.........",
":.........",
":.........",
":........."
};
